<?xml version="1.0" encoding="utf-8"?>
<!-- Generator: Adobe Illustrator 16.0.0, SVG Export Plug-In . SVG Version: 6.00 Build 0)  -->
<!DOCTYPE svg PUBLIC "-//W3C//DTD SVG 1.1//EN" "http://www.w3.org/Graphics/SVG/1.1/DTD/svg11.dtd">
<svg version="1.1" xmlns="http://www.w3.org/2000/svg" xmlns:xlink="http://www.w3.org/1999/xlink" x="0px" y="0px" width="96px"
	 height="16px" viewBox="0 0 96 16" enable-background="new 0 0 96 16" xml:space="preserve">
<g id="Layer_1" display="none">
	<rect display="inline" width="16" height="16"/>
	<rect x="16" display="inline" width="16" height="16"/>
	<rect x="32" display="inline" width="16" height="16"/>
	<rect x="48" display="inline" width="16" height="16"/>
	<rect x="64" display="inline" width="16" height="16"/>
	<rect x="80" display="inline" width="16" height="16"/>
	<g>
		<line display="inline" fill="none" stroke="#00A651" stroke-width="0.1" x1="96" y1="-100" x2="96" y2="116"/>
		<line display="inline" fill="none" stroke="#00A651" stroke-width="0.1" x1="80" y1="-100" x2="80" y2="116"/>
		<line display="inline" fill="none" stroke="#00A651" stroke-width="0.1" x1="80" y1="-100" x2="80" y2="116"/>
		<line display="inline" fill="none" stroke="#00A651" stroke-width="0.1" x1="64" y1="-100" x2="64" y2="116"/>
		<line display="inline" fill="none" stroke="#00A651" stroke-width="0.1" x1="64" y1="-100" x2="64" y2="116"/>
		<line display="inline" fill="none" stroke="#00A651" stroke-width="0.1" x1="48" y1="-100" x2="48" y2="116"/>
		<line display="inline" fill="none" stroke="#00A651" stroke-width="0.1" x1="48" y1="-100" x2="48" y2="116"/>
		<line display="inline" fill="none" stroke="#00A651" stroke-width="0.1" x1="32" y1="-100" x2="32" y2="116"/>
		<line display="inline" fill="none" stroke="#00A651" stroke-width="0.1" x1="32" y1="-100" x2="32" y2="116"/>
		<line display="inline" fill="none" stroke="#00A651" stroke-width="0.1" x1="16" y1="-100" x2="16" y2="116"/>
		<line display="inline" fill="none" stroke="#00A651" stroke-width="0.1" x1="16" y1="-100" x2="16" y2="116"/>
		<line display="inline" fill="none" stroke="#00A651" stroke-width="0.1" x1="0" y1="-100" x2="0" y2="116"/>
		<line display="inline" fill="none" stroke="#00A651" stroke-width="0.1" x1="-100" y1="16" x2="196" y2="16"/>
		<line display="inline" fill="none" stroke="#00A651" stroke-width="0.1" x1="-100" y1="0" x2="196" y2="0"/>
	</g>
</g>
<g id="Layer_2">
	<g>
		<g>
			<line fill="#C6CDC7" x1="48" y1="0.062" x2="32" y2="16.062"/>
			<g>
				<line fill="none" stroke="#DAD7C5" stroke-miterlimit="10" x1="48" y1="0.062" x2="45.525" y2="2.538"/>
				
					<line fill="none" stroke="#DAD7C5" stroke-miterlimit="10" stroke-dasharray="5.2091,5.2091" x1="41.842" y1="6.221" x2="36.316" y2="11.746"/>
				<line fill="none" stroke="#DAD7C5" stroke-miterlimit="10" x1="34.475" y1="13.588" x2="32" y2="16.062"/>
			</g>
		</g>
		<g>
			<line fill="#C6CDC7" x1="32" y1="0" x2="48" y2="16.062"/>
			<g>
				<line fill="none" stroke="#DAD7C5" stroke-miterlimit="10" x1="32" y1="0" x2="34.47" y2="2.479"/>
				
					<line fill="none" stroke="#DAD7C5" stroke-miterlimit="10" stroke-dasharray="5.2239,5.2239" x1="38.157" y1="6.181" x2="43.687" y2="11.732"/>
				<line fill="none" stroke="#DAD7C5" stroke-miterlimit="10" x1="45.53" y1="13.583" x2="48" y2="16.062"/>
			</g>
		</g>
	</g>
</g>
<g id="Layer_3">
	<g>
		<g>
			<line fill="#C6CDC7" x1="32" y1="0.062" x2="16" y2="16.062"/>
			<g>
				<line fill="none" stroke="#DAD7C5" stroke-miterlimit="10" x1="32" y1="0.062" x2="29.525" y2="2.538"/>
				
					<line fill="none" stroke="#DAD7C5" stroke-miterlimit="10" stroke-dasharray="5.2091,5.2091" x1="25.842" y1="6.221" x2="20.316" y2="11.746"/>
				<line fill="none" stroke="#DAD7C5" stroke-miterlimit="10" x1="18.475" y1="13.588" x2="16" y2="16.062"/>
			</g>
		</g>
		<g>
			<line fill="#C6CDC7" x1="16" y1="0" x2="32" y2="16.062"/>
			<g>
				<line fill="none" stroke="#DAD7C5" stroke-miterlimit="10" x1="16" y1="0" x2="18.47" y2="2.479"/>
				
					<line fill="none" stroke="#DAD7C5" stroke-miterlimit="10" stroke-dasharray="5.2239,5.2239" x1="22.157" y1="6.181" x2="27.687" y2="11.732"/>
				<line fill="none" stroke="#DAD7C5" stroke-miterlimit="10" x1="29.53" y1="13.583" x2="32" y2="16.062"/>
			</g>
		</g>
	</g>
</g>
<g id="Layer_4">
	<g>
		<line fill="#C6CDC7" stroke="#DAD7C5" stroke-miterlimit="10" x1="16" y1="0.062" x2="0" y2="16.062"/>
		<line fill="#C6CDC7" stroke="#DAD7C5" stroke-miterlimit="10" x1="0" y1="0" x2="16" y2="16.062"/>
	</g>
</g>
<g id="Layer_5">
	<g>
		<g>
			<line fill="#C6CDC7" x1="80" y1="0.062" x2="64" y2="16.062"/>
			<g>
				<line fill="none" stroke="#DAD7C5" stroke-miterlimit="10" x1="80" y1="0.062" x2="77.525" y2="2.538"/>
				
					<line fill="none" stroke="#DAD7C5" stroke-miterlimit="10" stroke-dasharray="5.2091,5.2091" x1="73.842" y1="6.221" x2="68.316" y2="11.746"/>
				<line fill="none" stroke="#DAD7C5" stroke-miterlimit="10" x1="66.475" y1="13.588" x2="64" y2="16.062"/>
			</g>
		</g>
		<g>
			<line fill="#C6CDC7" x1="64" y1="0" x2="80" y2="16.062"/>
			<g>
				<line fill="none" stroke="#DAD7C5" stroke-miterlimit="10" x1="64" y1="0" x2="66.47" y2="2.479"/>
				
					<line fill="none" stroke="#DAD7C5" stroke-miterlimit="10" stroke-dasharray="5.2239,5.2239" x1="70.156" y1="6.181" x2="75.687" y2="11.732"/>
				<line fill="none" stroke="#DAD7C5" stroke-miterlimit="10" x1="77.53" y1="13.583" x2="80" y2="16.062"/>
			</g>
		</g>
	</g>
	<g>
		<g>
			<line fill="#C6CDC7" x1="64" y1="0.062" x2="48" y2="16.062"/>
			<g>
				<line fill="none" stroke="#DAD7C5" stroke-miterlimit="10" x1="64" y1="0.062" x2="61.525" y2="2.538"/>
				
					<line fill="none" stroke="#DAD7C5" stroke-miterlimit="10" stroke-dasharray="5.2091,5.2091" x1="57.842" y1="6.221" x2="52.316" y2="11.746"/>
				<line fill="none" stroke="#DAD7C5" stroke-miterlimit="10" x1="50.475" y1="13.588" x2="48" y2="16.062"/>
			</g>
		</g>
		<g>
			<line fill="#C6CDC7" x1="48" y1="0" x2="64" y2="16.062"/>
			<g>
				<line fill="none" stroke="#DAD7C5" stroke-miterlimit="10" x1="48" y1="0" x2="50.47" y2="2.479"/>
				
					<line fill="none" stroke="#DAD7C5" stroke-miterlimit="10" stroke-dasharray="5.2239,5.2239" x1="54.156" y1="6.181" x2="59.687" y2="11.732"/>
				<line fill="none" stroke="#DAD7C5" stroke-miterlimit="10" x1="61.53" y1="13.583" x2="64" y2="16.062"/>
			</g>
		</g>
	</g>
	<g>
		<g>
			<line fill="#C6CDC7" x1="96" y1="0.062" x2="80" y2="16.062"/>
			<g>
				<line fill="none" stroke="#DAD7C5" stroke-miterlimit="10" x1="96" y1="0.062" x2="93.525" y2="2.538"/>
				
					<line fill="none" stroke="#DAD7C5" stroke-miterlimit="10" stroke-dasharray="5.2091,5.2091" x1="89.842" y1="6.221" x2="84.316" y2="11.746"/>
				<line fill="none" stroke="#DAD7C5" stroke-miterlimit="10" x1="82.475" y1="13.588" x2="80" y2="16.062"/>
			</g>
		</g>
		<g>
			<line fill="#C6CDC7" x1="80" y1="0" x2="96" y2="16.062"/>
			<g>
				<line fill="none" stroke="#DAD7C5" stroke-miterlimit="10" x1="80" y1="0" x2="82.47" y2="2.479"/>
				
					<line fill="none" stroke="#DAD7C5" stroke-miterlimit="10" stroke-dasharray="5.2239,5.2239" x1="86.156" y1="6.181" x2="91.687" y2="11.732"/>
				<line fill="none" stroke="#DAD7C5" stroke-miterlimit="10" x1="93.53" y1="13.583" x2="96" y2="16.062"/>
			</g>
		</g>
	</g>
	<path fill="none" stroke="#DAD7C5" stroke-miterlimit="10" stroke-dasharray="7,7" d="M32,0"/>
	<path fill="none" stroke="#DAD7C5" stroke-miterlimit="10" stroke-dasharray="7,7" d="M29.521,0"/>
	<path fill="none" stroke="#DAD7C5" stroke-miterlimit="10" stroke-dasharray="7,7" d="M32-0.003"/>
	<path fill="none" stroke="#DAD7C5" stroke-miterlimit="10" stroke-dasharray="7,7" d="M32,2.477"/>
	
		<line fill="none" stroke="#DAD7C5" stroke-width="0.5" stroke-miterlimit="10" stroke-dasharray="7,7" x1="79.727" y1="13.25" x2="79.727" y2="15.729"/>
	
		<line fill="none" stroke="#DAD7C5" stroke-width="0.5" stroke-miterlimit="10" stroke-dasharray="7,7" x1="77.25" y1="15.729" x2="79.729" y2="15.729"/>
	<path fill="none" stroke="#DAD7C5" stroke-miterlimit="10" stroke-dasharray="7,7" d="M31.253-3.167"/>
	<path fill="none" stroke="#DAD7C5" stroke-miterlimit="10" stroke-dasharray="7,7" d="M31.253-0.687"/>
	<path fill="none" stroke="#DAD7C5" stroke-miterlimit="10" stroke-dasharray="7,7" d="M31.25-3.167"/>
	<path fill="none" stroke="#DAD7C5" stroke-miterlimit="10" stroke-dasharray="7,7" d="M33.729-3.167"/>
	<path fill="none" stroke="#DAD7C5" stroke-miterlimit="10" stroke-dasharray="7,7" d="M64,0"/>
	<path fill="none" stroke="#DAD7C5" stroke-miterlimit="10" stroke-dasharray="7,7" d="M64,2.479"/>
	
		<line fill="none" stroke="#DAD7C5" stroke-width="0.5" stroke-miterlimit="10" stroke-dasharray="7,7" x1="82.729" y1="15.727" x2="80.25" y2="15.727"/>
	
		<line fill="none" stroke="#DAD7C5" stroke-width="0.5" stroke-miterlimit="10" stroke-dasharray="7,7" x1="80.25" y1="13.25" x2="80.25" y2="15.729"/>
	
		<line fill="none" stroke="#DAD7C5" stroke-width="0.5" stroke-miterlimit="10" stroke-dasharray="7,7" x1="61.25" y1="0.252" x2="63.729" y2="0.252"/>
	
		<line fill="none" stroke="#DAD7C5" stroke-width="0.5" stroke-miterlimit="10" stroke-dasharray="7,7" x1="63.729" y1="2.729" x2="63.729" y2="0.25"/>
	
		<line fill="none" stroke="#DAD7C5" stroke-width="0.5" stroke-miterlimit="10" stroke-dasharray="7,7" x1="32.252" y1="2.729" x2="32.252" y2="0.25"/>
	
		<line fill="none" stroke="#DAD7C5" stroke-width="0.5" stroke-miterlimit="10" stroke-dasharray="7,7" x1="34.729" y1="0.25" x2="32.25" y2="0.25"/>
</g>
</svg>
