<?xml version="1.0" encoding="utf-8"?>
<!-- Generator: Adobe Illustrator 16.0.0, SVG Export Plug-In . SVG Version: 6.00 Build 0)  -->
<!DOCTYPE svg PUBLIC "-//W3C//DTD SVG 1.1//EN" "http://www.w3.org/Graphics/SVG/1.1/DTD/svg11.dtd">
<svg version="1.1" xmlns="http://www.w3.org/2000/svg" xmlns:xlink="http://www.w3.org/1999/xlink" x="0px" y="0px" width="20px"
	 height="20px" viewBox="0 0 20 20" enable-background="new 0 0 20 20" xml:space="preserve">
<g id="Layer_1" display="none">
	<rect x="-96.125" y="2.219" display="inline" width="16" height="16"/>
	<rect x="-80" y="2" display="inline" width="16" height="16"/>
	<rect x="-64" y="2" display="inline" width="16" height="16"/>
	<rect x="-48" y="2" display="inline" width="16" height="16"/>
	<rect x="-32" y="2" display="inline" width="16" height="16"/>
	<rect x="-16" y="2" display="inline" width="16" height="16"/>
	<g display="inline">
		<line fill="none" stroke="#00A651" stroke-width="0.1" x1="0" y1="-98" x2="0" y2="118"/>
		<line fill="none" stroke="#00A651" stroke-width="0.1" x1="-16" y1="-98" x2="-16" y2="118"/>
		<line fill="none" stroke="#00A651" stroke-width="0.1" x1="-16" y1="-98" x2="-16" y2="118"/>
		<line fill="none" stroke="#00A651" stroke-width="0.1" x1="-32" y1="-98" x2="-32" y2="118"/>
		<line fill="none" stroke="#00A651" stroke-width="0.1" x1="-32" y1="-98" x2="-32" y2="118"/>
		<line fill="none" stroke="#00A651" stroke-width="0.1" x1="-48" y1="-98" x2="-48" y2="118"/>
		<line fill="none" stroke="#00A651" stroke-width="0.1" x1="-48" y1="-98" x2="-48" y2="118"/>
		<line fill="none" stroke="#00A651" stroke-width="0.1" x1="-64" y1="-98" x2="-64" y2="118"/>
		<line fill="none" stroke="#00A651" stroke-width="0.1" x1="-64" y1="-98" x2="-64" y2="118"/>
		<line fill="none" stroke="#00A651" stroke-width="0.1" x1="-80" y1="-98" x2="-80" y2="118"/>
		<line fill="none" stroke="#00A651" stroke-width="0.1" x1="-80" y1="-98" x2="-80" y2="118"/>
		<line fill="none" stroke="#00A651" stroke-width="0.1" x1="-96" y1="-98" x2="-96" y2="118"/>
		<line fill="none" stroke="#00A651" stroke-width="0.1" x1="-196" y1="18" x2="100" y2="18"/>
		<line fill="none" stroke="#00A651" stroke-width="0.1" x1="-196" y1="2" x2="100" y2="2"/>
	</g>
</g>
<g id="Layer_6">
	<g>
		<g>
			<g>
				<polyline fill="none" stroke="#DAD7C5" stroke-miterlimit="10" points="-82.5,14 -82.5,17.5 -86,17.5 				"/>
				<polyline fill="none" stroke="#DAD7C5" stroke-miterlimit="10" points="-94,17.5 -97.5,17.5 -97.5,14 				"/>
				<polyline fill="none" stroke="#DAD7C5" stroke-miterlimit="10" points="-97.5,6 -97.5,2.5 -94,2.5 				"/>
				<polyline fill="none" stroke="#DAD7C5" stroke-miterlimit="10" points="-86,2.5 -82.5,2.5 -82.5,6 				"/>
			</g>
		</g>
		<rect x="-91" y="9" fill="#DAD7C5" width="2" height="2"/>
	</g>
	<g>
		<g>
			<g>
				<polyline fill="none" stroke="#DAD7C5" stroke-miterlimit="10" points="-62.5,14 -62.5,17.5 -66,17.5 				"/>
				<polyline fill="none" stroke="#DAD7C5" stroke-miterlimit="10" points="-74,17.5 -77.5,17.5 -77.5,14 				"/>
				<polyline fill="none" stroke="#DAD7C5" stroke-miterlimit="10" points="-77.5,6 -77.5,2.5 -74,2.5 				"/>
				<polyline fill="none" stroke="#DAD7C5" stroke-miterlimit="10" points="-66,2.5 -62.5,2.5 -62.5,6 				"/>
			</g>
		</g>
		<rect x="-77.5" y="2.5" fill="none" stroke="#DAD7C5" stroke-miterlimit="10" width="5" height="5"/>
		<rect x="-71" y="9" fill="#DAD7C5" width="2" height="2"/>
	</g>
	<g>
		<g>
			<g>
				<polyline fill="none" stroke="#DAD7C5" stroke-miterlimit="10" points="-42.5,14 -42.5,17.5 -46,17.5 				"/>
				<polyline fill="none" stroke="#DAD7C5" stroke-miterlimit="10" points="-54,17.5 -57.5,17.5 -57.5,14 				"/>
				<polyline fill="none" stroke="#DAD7C5" stroke-miterlimit="10" points="-57.5,6 -57.5,2.5 -54,2.5 				"/>
				<polyline fill="none" stroke="#DAD7C5" stroke-miterlimit="10" points="-46,2.5 -42.5,2.5 -42.5,6 				"/>
			</g>
		</g>
		<rect x="-47.5" y="2.5" fill="none" stroke="#DAD7C5" stroke-miterlimit="10" width="5" height="5"/>
		<rect x="-51" y="9" fill="#DAD7C5" width="2" height="2"/>
	</g>
	<g>
		<rect x="-27.5" y="12.5" fill="none" stroke="#DAD7C5" stroke-miterlimit="10" width="5" height="5"/>
		<g>
			<g>
				<polyline fill="none" stroke="#DAD7C5" stroke-miterlimit="10" points="-22.5,14 -22.5,17.5 -26,17.5 				"/>
				<polyline fill="none" stroke="#DAD7C5" stroke-miterlimit="10" points="-34,17.5 -37.5,17.5 -37.5,14 				"/>
				<polyline fill="none" stroke="#DAD7C5" stroke-miterlimit="10" points="-37.5,6 -37.5,2.5 -34,2.5 				"/>
				<polyline fill="none" stroke="#DAD7C5" stroke-miterlimit="10" points="-26,2.5 -22.5,2.5 -22.5,6 				"/>
			</g>
		</g>
		<rect x="-31" y="9" fill="#DAD7C5" width="2" height="2"/>
	</g>
	<g>
		<rect x="-17.5" y="12.5" fill="none" stroke="#DAD7C5" stroke-miterlimit="10" width="5" height="5"/>
		<g>
			<g>
				<polyline fill="none" stroke="#DAD7C5" stroke-miterlimit="10" points="-2.5,14 -2.5,17.5 -6,17.5 				"/>
				<polyline fill="none" stroke="#DAD7C5" stroke-miterlimit="10" points="-14,17.5 -17.5,17.5 -17.5,14 				"/>
				<polyline fill="none" stroke="#DAD7C5" stroke-miterlimit="10" points="-17.5,6 -17.5,2.5 -14,2.5 				"/>
				<polyline fill="none" stroke="#DAD7C5" stroke-miterlimit="10" points="-6,2.5 -2.5,2.5 -2.5,6 				"/>
			</g>
		</g>
		<rect x="-11" y="9" fill="#DAD7C5" width="2" height="2"/>
	</g>
	<g>
		<rect x="2.5" y="2.5" fill="none" stroke="#DAD7C5" stroke-miterlimit="10" width="15" height="15"/>
		<rect x="2.5" y="2.5" fill="none" stroke="#DAD7C5" stroke-miterlimit="10" width="5" height="5"/>
		<rect x="9" y="9" fill="#DAD7C5" width="2" height="2"/>
	</g>
	<g>
		<rect x="22.5" y="2.5" fill="none" stroke="#DAD7C5" stroke-miterlimit="10" width="15" height="15"/>
		<rect x="32.5" y="2.5" fill="none" stroke="#DAD7C5" stroke-miterlimit="10" width="5" height="5"/>
		<rect x="29" y="9" fill="#DAD7C5" width="2" height="2"/>
	</g>
	<g>
		<rect x="52.5" y="12.5" fill="none" stroke="#DAD7C5" stroke-miterlimit="10" width="5" height="5"/>
		<rect x="42.5" y="2.5" fill="none" stroke="#DAD7C5" stroke-miterlimit="10" width="15" height="15"/>
		<rect x="49" y="9" fill="#DAD7C5" width="2" height="2"/>
	</g>
	<g>
		<rect x="62.5" y="12.5" fill="none" stroke="#DAD7C5" stroke-miterlimit="10" width="5" height="5"/>
		<rect x="62.5" y="2.5" fill="none" stroke="#DAD7C5" stroke-miterlimit="10" width="15" height="15"/>
		<rect x="69" y="9" fill="#DAD7C5" width="2" height="2"/>
	</g>
	<g>
		<rect x="-117.5" y="2.5" fill="none" stroke="#DAD7C5" stroke-miterlimit="10" width="15" height="15"/>
		<rect x="-111" y="9" fill="#DAD7C5" width="2" height="2"/>
	</g>
</g>
<g id="Layer_2" display="none">
	<g display="inline">
		<g>
			<line fill="#C6CDC7" x1="-48" y1="2.062" x2="-64" y2="18.062"/>
			<g>
				<line fill="none" stroke="#DAD7C5" stroke-miterlimit="10" x1="-48" y1="2.062" x2="-50.475" y2="4.538"/>
				
					<line fill="none" stroke="#DAD7C5" stroke-miterlimit="10" stroke-dasharray="5.2091,5.2091" x1="-54.158" y1="8.221" x2="-59.684" y2="13.746"/>
				<line fill="none" stroke="#DAD7C5" stroke-miterlimit="10" x1="-61.525" y1="15.588" x2="-64" y2="18.062"/>
			</g>
		</g>
		<g>
			<line fill="#C6CDC7" x1="-64" y1="2" x2="-48" y2="18.062"/>
			<g>
				<line fill="none" stroke="#DAD7C5" stroke-miterlimit="10" x1="-64" y1="2" x2="-61.53" y2="4.479"/>
				
					<line fill="none" stroke="#DAD7C5" stroke-miterlimit="10" stroke-dasharray="5.2239,5.2239" x1="-57.843" y1="8.181" x2="-52.313" y2="13.732"/>
				<line fill="none" stroke="#DAD7C5" stroke-miterlimit="10" x1="-50.47" y1="15.583" x2="-48" y2="18.062"/>
			</g>
		</g>
	</g>
</g>
<g id="Layer_3">
</g>
<g id="Layer_4" display="none">
	<g display="inline">
		<line fill="#C6CDC7" stroke="#DAD7C5" stroke-miterlimit="10" x1="-80" y1="2.062" x2="-96" y2="18.062"/>
		<line fill="#C6CDC7" stroke="#DAD7C5" stroke-miterlimit="10" x1="-96" y1="2" x2="-80" y2="18.062"/>
	</g>
</g>
<g id="Layer_5" display="none">
	<g display="inline">
		<g>
			<line fill="#C6CDC7" x1="-16" y1="2.062" x2="-32" y2="18.062"/>
			<g>
				<line fill="none" stroke="#DAD7C5" stroke-miterlimit="10" x1="-16" y1="2.062" x2="-18.475" y2="4.538"/>
				
					<line fill="none" stroke="#DAD7C5" stroke-miterlimit="10" stroke-dasharray="5.2091,5.2091" x1="-22.158" y1="8.221" x2="-27.684" y2="13.746"/>
				<line fill="none" stroke="#DAD7C5" stroke-miterlimit="10" x1="-29.525" y1="15.588" x2="-32" y2="18.062"/>
			</g>
		</g>
		<g>
			<line fill="#C6CDC7" x1="-32" y1="2" x2="-16" y2="18.062"/>
			<g>
				<line fill="none" stroke="#DAD7C5" stroke-miterlimit="10" x1="-32" y1="2" x2="-29.53" y2="4.479"/>
				
					<line fill="none" stroke="#DAD7C5" stroke-miterlimit="10" stroke-dasharray="5.2239,5.2239" x1="-25.844" y1="8.181" x2="-20.313" y2="13.732"/>
				<line fill="none" stroke="#DAD7C5" stroke-miterlimit="10" x1="-18.47" y1="15.583" x2="-16" y2="18.062"/>
			</g>
		</g>
	</g>
	<g display="inline">
		<g>
			<line fill="#C6CDC7" x1="-32" y1="2.062" x2="-48" y2="18.062"/>
			<g>
				<line fill="none" stroke="#DAD7C5" stroke-miterlimit="10" x1="-32" y1="2.062" x2="-34.475" y2="4.538"/>
				
					<line fill="none" stroke="#DAD7C5" stroke-miterlimit="10" stroke-dasharray="5.2091,5.2091" x1="-38.158" y1="8.221" x2="-43.684" y2="13.746"/>
				<line fill="none" stroke="#DAD7C5" stroke-miterlimit="10" x1="-45.525" y1="15.588" x2="-48" y2="18.062"/>
			</g>
		</g>
		<g>
			<line fill="#C6CDC7" x1="-48" y1="2" x2="-32" y2="18.062"/>
			<g>
				<line fill="none" stroke="#DAD7C5" stroke-miterlimit="10" x1="-48" y1="2" x2="-45.53" y2="4.479"/>
				
					<line fill="none" stroke="#DAD7C5" stroke-miterlimit="10" stroke-dasharray="5.2239,5.2239" x1="-41.844" y1="8.181" x2="-36.313" y2="13.732"/>
				<line fill="none" stroke="#DAD7C5" stroke-miterlimit="10" x1="-34.47" y1="15.583" x2="-32" y2="18.062"/>
			</g>
		</g>
	</g>
	<g display="inline">
		<g>
			<line fill="#C6CDC7" x1="0" y1="2.062" x2="-16" y2="18.062"/>
			<g>
				<line fill="none" stroke="#DAD7C5" stroke-miterlimit="10" x1="0" y1="2.062" x2="-2.475" y2="4.538"/>
				
					<line fill="none" stroke="#DAD7C5" stroke-miterlimit="10" stroke-dasharray="5.2091,5.2091" x1="-6.158" y1="8.221" x2="-11.684" y2="13.746"/>
				<line fill="none" stroke="#DAD7C5" stroke-miterlimit="10" x1="-13.525" y1="15.588" x2="-16" y2="18.062"/>
			</g>
		</g>
		<g>
			<line fill="#C6CDC7" x1="-16" y1="2" x2="0" y2="18.062"/>
			<g>
				<line fill="none" stroke="#DAD7C5" stroke-miterlimit="10" x1="-16" y1="2" x2="-13.53" y2="4.479"/>
				
					<line fill="none" stroke="#DAD7C5" stroke-miterlimit="10" stroke-dasharray="5.2239,5.2239" x1="-9.844" y1="8.181" x2="-4.313" y2="13.732"/>
				<line fill="none" stroke="#DAD7C5" stroke-miterlimit="10" x1="-2.47" y1="15.583" x2="0" y2="18.062"/>
			</g>
		</g>
	</g>
	<path display="inline" fill="none" stroke="#DAD7C5" stroke-miterlimit="10" stroke-dasharray="7,7" d="M-64,2"/>
	<path display="inline" fill="none" stroke="#DAD7C5" stroke-miterlimit="10" stroke-dasharray="7,7" d="M-66.479,2"/>
	<path display="inline" fill="none" stroke="#DAD7C5" stroke-miterlimit="10" stroke-dasharray="7,7" d="M-64,1.997"/>
	<path display="inline" fill="none" stroke="#DAD7C5" stroke-miterlimit="10" stroke-dasharray="7,7" d="M-64,4.477"/>
	
		<line display="inline" fill="none" stroke="#DAD7C5" stroke-width="0.5" stroke-miterlimit="10" stroke-dasharray="7,7" x1="-16.273" y1="15.25" x2="-16.273" y2="17.729"/>
	
		<line display="inline" fill="none" stroke="#DAD7C5" stroke-width="0.5" stroke-miterlimit="10" stroke-dasharray="7,7" x1="-18.75" y1="17.729" x2="-16.271" y2="17.729"/>
	<path display="inline" fill="none" stroke="#DAD7C5" stroke-miterlimit="10" stroke-dasharray="7,7" d="M-64.747-1.167"/>
	<path display="inline" fill="none" stroke="#DAD7C5" stroke-miterlimit="10" stroke-dasharray="7,7" d="M-64.747,1.313"/>
	<path display="inline" fill="none" stroke="#DAD7C5" stroke-miterlimit="10" stroke-dasharray="7,7" d="M-64.75-1.167"/>
	<path display="inline" fill="none" stroke="#DAD7C5" stroke-miterlimit="10" stroke-dasharray="7,7" d="M-62.271-1.167"/>
	<path display="inline" fill="none" stroke="#DAD7C5" stroke-miterlimit="10" stroke-dasharray="7,7" d="M-32,2"/>
	<path display="inline" fill="none" stroke="#DAD7C5" stroke-miterlimit="10" stroke-dasharray="7,7" d="M-32,4.479"/>
	
		<line display="inline" fill="none" stroke="#DAD7C5" stroke-width="0.5" stroke-miterlimit="10" stroke-dasharray="7,7" x1="-13.271" y1="17.727" x2="-15.75" y2="17.727"/>
	
		<line display="inline" fill="none" stroke="#DAD7C5" stroke-width="0.5" stroke-miterlimit="10" stroke-dasharray="7,7" x1="-15.75" y1="15.25" x2="-15.75" y2="17.729"/>
	
		<line display="inline" fill="none" stroke="#DAD7C5" stroke-width="0.5" stroke-miterlimit="10" stroke-dasharray="7,7" x1="-34.75" y1="2.252" x2="-32.271" y2="2.252"/>
	
		<line display="inline" fill="none" stroke="#DAD7C5" stroke-width="0.5" stroke-miterlimit="10" stroke-dasharray="7,7" x1="-32.271" y1="4.729" x2="-32.271" y2="2.25"/>
	
		<line display="inline" fill="none" stroke="#DAD7C5" stroke-width="0.5" stroke-miterlimit="10" stroke-dasharray="7,7" x1="-63.748" y1="4.729" x2="-63.748" y2="2.25"/>
	
		<line display="inline" fill="none" stroke="#DAD7C5" stroke-width="0.5" stroke-miterlimit="10" stroke-dasharray="7,7" x1="-61.271" y1="2.25" x2="-63.75" y2="2.25"/>
</g>
</svg>
