<?xml version="1.0" encoding="utf-8"?>
<!-- Generator: Adobe Illustrator 16.0.0, SVG Export Plug-In . SVG Version: 6.00 Build 0)  -->
<!DOCTYPE svg PUBLIC "-//W3C//DTD SVG 1.1//EN" "http://www.w3.org/Graphics/SVG/1.1/DTD/svg11.dtd">
<svg version="1.1" xmlns="http://www.w3.org/2000/svg" xmlns:xlink="http://www.w3.org/1999/xlink" x="0px" y="0px" width="21px"
	 height="21px" viewBox="0.021 0.021 21 21" enable-background="new 0.021 0.021 21 21" xml:space="preserve">
<g id="Layer_1">
	<g>
		<g>
			<polyline fill="none" stroke="#DAD7C4" stroke-miterlimit="10" points="18.021,14.521 18.021,18.021 14.521,18.021 			"/>
			<polyline fill="none" stroke="#DAD7C4" stroke-miterlimit="10" points="6.521,18.021 3.021,18.021 3.021,14.521 			"/>
			<polyline fill="none" stroke="#DAD7C4" stroke-miterlimit="10" points="3.021,6.521 3.021,3.021 6.521,3.021 			"/>
			<polyline fill="none" stroke="#DAD7C4" stroke-miterlimit="10" points="14.521,3.021 18.021,3.021 18.021,6.521 			"/>
		</g>
		<rect x="9.521" y="9.521" fill="#DAD7C4" width="2" height="2"/>
	</g>
</g>
<g id="complete">
	<g>
		<polyline fill="none" stroke="#DAD7C4" stroke-miterlimit="10" points="20.5,15.833 20.5,20.5 5.208,20.5 		"/>
		<polyline fill="none" stroke="#DAD7C4" stroke-miterlimit="10" points="6.583,20.5 0.5,20.5 0.5,5 		"/>
		<polyline fill="none" stroke="#DAD7C4" stroke-miterlimit="10" points="0.5,5.167 0.5,0.5 5.167,0.5 		"/>
		<polyline fill="none" stroke="#DAD7C4" stroke-miterlimit="10" points="5.167,0.5 20.5,0.5 20.5,15.833 		"/>
	</g>
</g>
<g id="first">
	<g>
		<polyline fill="none" stroke="#DAD7C4" stroke-miterlimit="10" points="6.583,20.5 0.5,20.5 0.5,20 		"/>
	</g>
</g>
<g id="second">
	<g>
		<polyline fill="none" stroke="#DAD7C4" stroke-miterlimit="10" points="20.5,15.833 20.5,20.5 5.208,20.5 		"/>
		<polyline fill="none" stroke="#DAD7C4" stroke-miterlimit="10" points="6.583,20.5 -0.583,20.5 -0.583,20.082 		"/>
	</g>
</g>
<g id="third">
	<g>
		<polyline fill="none" stroke="#DAD7C4" stroke-miterlimit="10" points="20.5,15.833 20.5,20.5 5.208,20.5 		"/>
		<polyline fill="none" stroke="#DAD7C4" stroke-miterlimit="10" points="6.583,20.497 -0.583,20.497 -0.583,20.168 		"/>
		<polyline fill="none" stroke="#DAD7C4" stroke-miterlimit="10" points="5.167,0.5 20.5,0.5 20.5,15.833 		"/>
	</g>
</g>
<g id="fourth">
	<g>
		<polyline fill="none" stroke="#DAD7C4" stroke-miterlimit="10" points="20.5,15.833 20.5,20.5 5.208,20.5 		"/>
		<polyline fill="none" stroke="#DAD7C4" stroke-miterlimit="10" points="6.583,20.5 0.5,20.5 0.5,20 		"/>
		<polyline fill="none" stroke="#DAD7C4" stroke-miterlimit="10" points="0.5,12.041 0.5,0.5 5.167,0.5 		"/>
		<polyline fill="none" stroke="#DAD7C4" stroke-miterlimit="10" points="5.167,0.5 20.5,0.5 20.5,15.833 		"/>
	</g>
</g>
</svg>
