<?xml version="1.0" encoding="utf-8"?>
<!-- Generator: Adobe Illustrator 16.0.0, SVG Export Plug-In . SVG Version: 6.00 Build 0)  -->
<svg version="1.2" baseProfile="tiny" id="Layer_1" xmlns="http://www.w3.org/2000/svg" xmlns:xlink="http://www.w3.org/1999/xlink"
	 x="0px" y="0px" width="96px" height="16px" viewBox="0 0 96 16" xml:space="preserve">
<path fill="#DAD7C4" d="M36,1v3h-3V1H36 M37,0h-5v5h5V0L37,0z"/>
<path fill="#DAD7C4" d="M63,1v3h-3V1H63 M64,0h-5v5h5V0L64,0z"/>
<path fill="#DAD7C4" d="M79,12v3h-3v-3H79 M80,11h-5v5h5V11L80,11z"/>
<path fill="#DAD7C4" d="M84,12v3h-3v-3H84 M85,11h-5v5h5V11L85,11z"/>
<rect x="39" y="7" fill="#DAD7C4" width="2" height="2"/>
<rect x="7" y="7" fill="#DAD7C4" width="2" height="2"/>
<path fill="#DAD7C4" d="M15,1v14H1V1H15 M16,0H0v16h16V0L16,0z"/>
<path fill="#DAD7C4" d="M32,5V0h5v1h-4v4H32z M43,1h4v4h1V0h-5V1z M37,15h-4v-4h-1v5h5V15z M47,11v4h-4v1h5v-5H47z"/>
<path fill="#DAD7C4" d="M16,5V0h5v1h-4v4H16z M27,1h4v4h1V0h-5V1z M21,15h-4v-4h-1v5h5V15z M31,11v4h-4v1h5v-5H31z"/>
<rect x="55" y="7" fill="#DAD7C4" width="2" height="2"/>
<path fill="#DAD7C4" d="M48,5V0h5v1h-4v4H48z M59,1h4v4h1V0h-5V1z M53,15h-4v-4h-1v5h5V15z M63,11v4h-4v1h5v-5H63z"/>
<rect x="71" y="7" fill="#DAD7C4" width="2" height="2"/>
<path fill="#DAD7C4" d="M64,5V0h5v1h-4v4H64z M75,1h4v4h1V0h-5V1z M69,15h-4v-4h-1v5h5V15z M79,11v4h-4v1h5v-5H79z"/>
<rect x="87" y="7" fill="#DAD7C4" width="2" height="2"/>
<path fill="#DAD7C4" d="M80,5V0h5v1h-4v4H80z M91,1h4v4h1V0h-5V1z M85,15h-4v-4h-1v5h5V15z M95,11v4h-4v1h5v-5H95z"/>
</svg>
