<?xml version="1.0" encoding="utf-8"?>
<!-- Generator: Adobe Illustrator 16.0.0, SVG Export Plug-In . SVG Version: 6.00 Build 0)  -->
<svg version="1.2" baseProfile="tiny" xmlns="http://www.w3.org/2000/svg" xmlns:xlink="http://www.w3.org/1999/xlink" x="0px"
	 y="0px" width="96px" height="16px" viewBox="0 0 96 16" xml:space="preserve">
<g id="Layer_1">
	<rect width="16" height="16"/>
	<rect x="16" width="16" height="16"/>
	<rect x="32" width="16" height="16"/>
	<rect x="48" width="16" height="16"/>
	<rect x="64" width="16" height="16"/>
	<rect x="80" width="16" height="16"/>
	<g display="none">
		<line display="inline" fill="none" stroke="#00A651" stroke-width="0.1" x1="96" y1="-100" x2="96" y2="116"/>
		<line display="inline" fill="none" stroke="#00A651" stroke-width="0.1" x1="80" y1="-100" x2="80" y2="116"/>
		<line display="inline" fill="none" stroke="#00A651" stroke-width="0.1" x1="80" y1="-100" x2="80" y2="116"/>
		<line display="inline" fill="none" stroke="#00A651" stroke-width="0.1" x1="64" y1="-100" x2="64" y2="116"/>
		<line display="inline" fill="none" stroke="#00A651" stroke-width="0.1" x1="64" y1="-100" x2="64" y2="116"/>
		<line display="inline" fill="none" stroke="#00A651" stroke-width="0.1" x1="48" y1="-100" x2="48" y2="116"/>
		<line display="inline" fill="none" stroke="#00A651" stroke-width="0.1" x1="48" y1="-100" x2="48" y2="116"/>
		<line display="inline" fill="none" stroke="#00A651" stroke-width="0.1" x1="32" y1="-100" x2="32" y2="116"/>
		<line display="inline" fill="none" stroke="#00A651" stroke-width="0.1" x1="32" y1="-100" x2="32" y2="116"/>
		<line display="inline" fill="none" stroke="#00A651" stroke-width="0.1" x1="16" y1="-100" x2="16" y2="116"/>
		<line display="inline" fill="none" stroke="#00A651" stroke-width="0.1" x1="16" y1="-100" x2="16" y2="116"/>
		<line display="inline" fill="none" stroke="#00A651" stroke-width="0.1" x1="0" y1="-100" x2="0" y2="116"/>
		<line display="inline" fill="none" stroke="#00A651" stroke-width="0.1" x1="-100" y1="16" x2="196" y2="16"/>
		<line display="inline" fill="none" stroke="#00A651" stroke-width="0.1" x1="-100" y1="0" x2="196" y2="0"/>
	</g>
</g>
<g id="Layer_6">
	<rect x="0.5" y="0.5" fill="none" stroke="#DAD7C5" stroke-miterlimit="10" width="15" height="15"/>
	<circle fill="#DAD7C5" cx="8" cy="8" r="0.5"/>
	<g>
		<polyline fill="none" stroke="#DAD7C5" stroke-miterlimit="10" points="31.5,12 31.5,15.5 28,15.5 		"/>
		<polyline fill="none" stroke="#DAD7C5" stroke-miterlimit="10" points="20,15.5 16.5,15.5 16.5,12 		"/>
		<polyline fill="none" stroke="#DAD7C5" stroke-miterlimit="10" points="16.5,4 16.5,0.5 20,0.5 		"/>
		<polyline fill="none" stroke="#DAD7C5" stroke-miterlimit="10" points="28,0.5 31.5,0.5 31.5,4 		"/>
	</g>
	<circle fill="#DAD7C5" cx="24" cy="8" r="0.5"/>
	<g>
		<polyline fill="none" stroke="#DAD7C5" stroke-miterlimit="10" points="47.5,12 47.5,15.5 44,15.5 		"/>
		<polyline fill="none" stroke="#DAD7C5" stroke-miterlimit="10" points="36,15.5 32.5,15.5 32.5,12 		"/>
		<polyline fill="none" stroke="#DAD7C5" stroke-miterlimit="10" points="32.5,4 32.5,0.5 36,0.5 		"/>
		<polyline fill="none" stroke="#DAD7C5" stroke-miterlimit="10" points="44,0.5 47.5,0.5 47.5,4 		"/>
	</g>
	<circle fill="#DAD7C5" cx="40" cy="8" r="0.5"/>
	<rect x="32.5" y="0.5" fill="none" stroke="#DAD7C5" stroke-miterlimit="10" width="5" height="5"/>
	<g>
		<polyline fill="none" stroke="#DAD7C5" stroke-miterlimit="10" points="63.5,12 63.5,15.5 60,15.5 		"/>
		<polyline fill="none" stroke="#DAD7C5" stroke-miterlimit="10" points="52,15.5 48.5,15.5 48.5,12 		"/>
		<polyline fill="none" stroke="#DAD7C5" stroke-miterlimit="10" points="48.5,4 48.5,0.5 52,0.5 		"/>
		<polyline fill="none" stroke="#DAD7C5" stroke-miterlimit="10" points="60,0.5 63.5,0.5 63.5,4 		"/>
	</g>
	<circle fill="#DAD7C5" cx="56" cy="8" r="0.5"/>
	<rect x="58.5" y="0.5" fill="none" stroke="#DAD7C5" stroke-miterlimit="10" width="5" height="5"/>
	<rect x="74.5" y="10.5" fill="none" stroke="#DAD7C5" stroke-miterlimit="10" width="5" height="5"/>
	<rect x="80.5" y="10.5" fill="none" stroke="#DAD7C5" stroke-miterlimit="10" width="5" height="5"/>
	<g>
		<polyline fill="none" stroke="#DAD7C5" stroke-miterlimit="10" points="79.5,12 79.5,15.5 76,15.5 		"/>
		<polyline fill="none" stroke="#DAD7C5" stroke-miterlimit="10" points="68,15.5 64.5,15.5 64.5,12 		"/>
		<polyline fill="none" stroke="#DAD7C5" stroke-miterlimit="10" points="64.5,4 64.5,0.5 68,0.5 		"/>
		<polyline fill="none" stroke="#DAD7C5" stroke-miterlimit="10" points="76,0.5 79.5,0.5 79.5,4 		"/>
	</g>
	<circle fill="#DAD7C5" cx="72" cy="8" r="0.5"/>
	<g>
		<polyline fill="none" stroke="#DAD7C5" stroke-miterlimit="10" points="95.5,12 95.5,15.5 92,15.5 		"/>
		<polyline fill="none" stroke="#DAD7C5" stroke-miterlimit="10" points="84,15.5 80.5,15.5 80.5,12 		"/>
		<polyline fill="none" stroke="#DAD7C5" stroke-miterlimit="10" points="80.5,4 80.5,0.5 84,0.5 		"/>
		<polyline fill="none" stroke="#DAD7C5" stroke-miterlimit="10" points="92,0.5 95.5,0.5 95.5,4 		"/>
	</g>
	<circle fill="#DAD7C5" cx="88" cy="8" r="0.5"/>
</g>
<g id="Layer_2" display="none">
	<g display="inline">
		<g>
			<line fill="#C6CDC7" x1="48" y1="0.062" x2="32" y2="16.062"/>
			<g>
				<line fill="none" stroke="#DAD7C5" stroke-miterlimit="10" x1="48" y1="0.062" x2="45.525" y2="2.538"/>
				
					<line fill="none" stroke="#DAD7C5" stroke-miterlimit="10" stroke-dasharray="5.2091,5.2091" x1="41.842" y1="6.221" x2="36.316" y2="11.746"/>
				<line fill="none" stroke="#DAD7C5" stroke-miterlimit="10" x1="34.475" y1="13.588" x2="32" y2="16.062"/>
			</g>
		</g>
		<g>
			<line fill="#C6CDC7" x1="32" y1="0" x2="48" y2="16.062"/>
			<g>
				<line fill="none" stroke="#DAD7C5" stroke-miterlimit="10" x1="32" y1="0" x2="34.47" y2="2.479"/>
				
					<line fill="none" stroke="#DAD7C5" stroke-miterlimit="10" stroke-dasharray="5.2239,5.2239" x1="38.157" y1="6.181" x2="43.687" y2="11.732"/>
				<line fill="none" stroke="#DAD7C5" stroke-miterlimit="10" x1="45.53" y1="13.583" x2="48" y2="16.062"/>
			</g>
		</g>
	</g>
</g>
<g id="Layer_3">
</g>
<g id="Layer_4" display="none">
	<g display="inline">
		<line fill="#C6CDC7" stroke="#DAD7C5" stroke-miterlimit="10" x1="16" y1="0.062" x2="0" y2="16.062"/>
		<line fill="#C6CDC7" stroke="#DAD7C5" stroke-miterlimit="10" x1="0" y1="0" x2="16" y2="16.062"/>
	</g>
</g>
<g id="Layer_5" display="none">
	<g display="inline">
		<g>
			<line fill="#C6CDC7" x1="80" y1="0.062" x2="64" y2="16.062"/>
			<g>
				<line fill="none" stroke="#DAD7C5" stroke-miterlimit="10" x1="80" y1="0.062" x2="77.525" y2="2.538"/>
				
					<line fill="none" stroke="#DAD7C5" stroke-miterlimit="10" stroke-dasharray="5.2091,5.2091" x1="73.842" y1="6.221" x2="68.316" y2="11.746"/>
				<line fill="none" stroke="#DAD7C5" stroke-miterlimit="10" x1="66.475" y1="13.588" x2="64" y2="16.062"/>
			</g>
		</g>
		<g>
			<line fill="#C6CDC7" x1="64" y1="0" x2="80" y2="16.062"/>
			<g>
				<line fill="none" stroke="#DAD7C5" stroke-miterlimit="10" x1="64" y1="0" x2="66.47" y2="2.479"/>
				
					<line fill="none" stroke="#DAD7C5" stroke-miterlimit="10" stroke-dasharray="5.2239,5.2239" x1="70.156" y1="6.181" x2="75.687" y2="11.732"/>
				<line fill="none" stroke="#DAD7C5" stroke-miterlimit="10" x1="77.53" y1="13.583" x2="80" y2="16.062"/>
			</g>
		</g>
	</g>
	<g display="inline">
		<g>
			<line fill="#C6CDC7" x1="64" y1="0.062" x2="48" y2="16.062"/>
			<g>
				<line fill="none" stroke="#DAD7C5" stroke-miterlimit="10" x1="64" y1="0.062" x2="61.525" y2="2.538"/>
				
					<line fill="none" stroke="#DAD7C5" stroke-miterlimit="10" stroke-dasharray="5.2091,5.2091" x1="57.842" y1="6.221" x2="52.316" y2="11.746"/>
				<line fill="none" stroke="#DAD7C5" stroke-miterlimit="10" x1="50.475" y1="13.588" x2="48" y2="16.062"/>
			</g>
		</g>
		<g>
			<line fill="#C6CDC7" x1="48" y1="0" x2="64" y2="16.062"/>
			<g>
				<line fill="none" stroke="#DAD7C5" stroke-miterlimit="10" x1="48" y1="0" x2="50.47" y2="2.479"/>
				
					<line fill="none" stroke="#DAD7C5" stroke-miterlimit="10" stroke-dasharray="5.2239,5.2239" x1="54.156" y1="6.181" x2="59.687" y2="11.732"/>
				<line fill="none" stroke="#DAD7C5" stroke-miterlimit="10" x1="61.53" y1="13.583" x2="64" y2="16.062"/>
			</g>
		</g>
	</g>
	<g display="inline">
		<g>
			<line fill="#C6CDC7" x1="96" y1="0.062" x2="80" y2="16.062"/>
			<g>
				<line fill="none" stroke="#DAD7C5" stroke-miterlimit="10" x1="96" y1="0.062" x2="93.525" y2="2.538"/>
				
					<line fill="none" stroke="#DAD7C5" stroke-miterlimit="10" stroke-dasharray="5.2091,5.2091" x1="89.842" y1="6.221" x2="84.316" y2="11.746"/>
				<line fill="none" stroke="#DAD7C5" stroke-miterlimit="10" x1="82.475" y1="13.588" x2="80" y2="16.062"/>
			</g>
		</g>
		<g>
			<line fill="#C6CDC7" x1="80" y1="0" x2="96" y2="16.062"/>
			<g>
				<line fill="none" stroke="#DAD7C5" stroke-miterlimit="10" x1="80" y1="0" x2="82.47" y2="2.479"/>
				
					<line fill="none" stroke="#DAD7C5" stroke-miterlimit="10" stroke-dasharray="5.2239,5.2239" x1="86.156" y1="6.181" x2="91.687" y2="11.732"/>
				<line fill="none" stroke="#DAD7C5" stroke-miterlimit="10" x1="93.53" y1="13.583" x2="96" y2="16.062"/>
			</g>
		</g>
	</g>
	<path display="inline" fill="none" stroke="#DAD7C5" stroke-miterlimit="10" stroke-dasharray="7,7" d="M32,0"/>
	<path display="inline" fill="none" stroke="#DAD7C5" stroke-miterlimit="10" stroke-dasharray="7,7" d="M29.521,0"/>
	<path display="inline" fill="none" stroke="#DAD7C5" stroke-miterlimit="10" stroke-dasharray="7,7" d="M32-0.003"/>
	<path display="inline" fill="none" stroke="#DAD7C5" stroke-miterlimit="10" stroke-dasharray="7,7" d="M32,2.477"/>
	
		<line display="inline" fill="none" stroke="#DAD7C5" stroke-width="0.5" stroke-miterlimit="10" stroke-dasharray="7,7" x1="79.727" y1="13.25" x2="79.727" y2="15.729"/>
	
		<line display="inline" fill="none" stroke="#DAD7C5" stroke-width="0.5" stroke-miterlimit="10" stroke-dasharray="7,7" x1="77.25" y1="15.729" x2="79.729" y2="15.729"/>
	<path display="inline" fill="none" stroke="#DAD7C5" stroke-miterlimit="10" stroke-dasharray="7,7" d="M31.253-3.167"/>
	<path display="inline" fill="none" stroke="#DAD7C5" stroke-miterlimit="10" stroke-dasharray="7,7" d="M31.253-0.687"/>
	<path display="inline" fill="none" stroke="#DAD7C5" stroke-miterlimit="10" stroke-dasharray="7,7" d="M31.25-3.167"/>
	<path display="inline" fill="none" stroke="#DAD7C5" stroke-miterlimit="10" stroke-dasharray="7,7" d="M33.729-3.167"/>
	<path display="inline" fill="none" stroke="#DAD7C5" stroke-miterlimit="10" stroke-dasharray="7,7" d="M64,0"/>
	<path display="inline" fill="none" stroke="#DAD7C5" stroke-miterlimit="10" stroke-dasharray="7,7" d="M64,2.479"/>
	
		<line display="inline" fill="none" stroke="#DAD7C5" stroke-width="0.5" stroke-miterlimit="10" stroke-dasharray="7,7" x1="82.729" y1="15.727" x2="80.25" y2="15.727"/>
	
		<line display="inline" fill="none" stroke="#DAD7C5" stroke-width="0.5" stroke-miterlimit="10" stroke-dasharray="7,7" x1="80.25" y1="13.25" x2="80.25" y2="15.729"/>
	
		<line display="inline" fill="none" stroke="#DAD7C5" stroke-width="0.5" stroke-miterlimit="10" stroke-dasharray="7,7" x1="61.25" y1="0.252" x2="63.729" y2="0.252"/>
	
		<line display="inline" fill="none" stroke="#DAD7C5" stroke-width="0.5" stroke-miterlimit="10" stroke-dasharray="7,7" x1="63.729" y1="2.729" x2="63.729" y2="0.25"/>
	
		<line display="inline" fill="none" stroke="#DAD7C5" stroke-width="0.5" stroke-miterlimit="10" stroke-dasharray="7,7" x1="32.252" y1="2.729" x2="32.252" y2="0.25"/>
	
		<line display="inline" fill="none" stroke="#DAD7C5" stroke-width="0.5" stroke-miterlimit="10" stroke-dasharray="7,7" x1="34.729" y1="0.25" x2="32.25" y2="0.25"/>
</g>
</svg>
